<mxfile host="Electron" modified="2024-02-06T08:26:33.318Z" agent="Mozilla/5.0 (X11; Linux x86_64) AppleWebKit/537.36 (KHTML, like Gecko) draw.io/21.2.8 Chrome/112.0.5615.165 Electron/24.2.0 Safari/537.36" etag="kzLbxq0HZ1ekh-26ZOXf" version="21.2.8" type="device">
  <diagram id="prtHgNgQTEPvFCAcTncT" name="Page-1">
    <mxGraphModel dx="1397" dy="1151" grid="1" gridSize="10" guides="1" tooltips="1" connect="1" arrows="1" fold="1" page="1" pageScale="1" pageWidth="1100" pageHeight="850" math="0" shadow="0">
      <root>
        <mxCell id="0" />
        <mxCell id="1" style="" parent="0" />
        <mxCell id="i5FWKl6yyj3rR0sEyV6Q-10" value="&lt;b style=&quot;font-size: 28px;&quot;&gt;Operator Vault&lt;br&gt;Capacity Provisioning Process&lt;/b&gt;" style="text;strokeColor=none;align=center;fillColor=none;html=1;verticalAlign=middle;whiteSpace=wrap;rounded=0;" vertex="1" parent="1">
          <mxGeometry x="330" y="30" width="440" height="80" as="geometry" />
        </mxCell>
        <mxCell id="i5FWKl6yyj3rR0sEyV6Q-14" value="&lt;b&gt;&lt;font style=&quot;font-size: 20px;&quot;&gt;Operator Vault Staff&lt;/font&gt;&lt;/b&gt;" style="html=1;verticalAlign=bottom;labelPosition=center;verticalLabelPosition=top;align=center;shadow=1;rounded=1;" vertex="1" parent="1">
          <mxGeometry x="710" y="170" width="320" height="550" as="geometry" />
        </mxCell>
        <mxCell id="i5FWKl6yyj3rR0sEyV6Q-15" value="&lt;b&gt;&lt;font style=&quot;&quot;&gt;&lt;font style=&quot;font-size: 20px;&quot;&gt;ServiceNow&lt;/font&gt;&lt;br&gt;&lt;/font&gt;&lt;/b&gt;" style="html=1;verticalAlign=bottom;labelPosition=center;verticalLabelPosition=top;align=center;shadow=1;rounded=1;" vertex="1" parent="1">
          <mxGeometry x="390" y="170" width="320" height="550" as="geometry" />
        </mxCell>
        <mxCell id="i5FWKl6yyj3rR0sEyV6Q-17" value="&lt;b&gt;&lt;font style=&quot;&quot;&gt;&lt;font style=&quot;font-size: 20px;&quot;&gt;IaaS System Management Staff&lt;/font&gt;&lt;br&gt;&lt;/font&gt;&lt;/b&gt;" style="html=1;verticalAlign=bottom;labelPosition=center;verticalLabelPosition=top;align=center;shadow=1;rounded=1;" vertex="1" parent="1">
          <mxGeometry x="70" y="170" width="320" height="550" as="geometry" />
        </mxCell>
        <object label="Process" id="i5FWKl6yyj3rR0sEyV6Q-19">
          <mxCell style="" parent="0" />
        </object>
        <mxCell id="i5FWKl6yyj3rR0sEyV6Q-28" style="edgeStyle=orthogonalEdgeStyle;rounded=0;orthogonalLoop=1;jettySize=auto;html=1;entryX=0.75;entryY=1;entryDx=0;entryDy=0;" edge="1" parent="i5FWKl6yyj3rR0sEyV6Q-19" source="i5FWKl6yyj3rR0sEyV6Q-25" target="i5FWKl6yyj3rR0sEyV6Q-21">
          <mxGeometry relative="1" as="geometry">
            <Array as="points">
              <mxPoint x="905" y="500" />
              <mxPoint x="603" y="500" />
            </Array>
          </mxGeometry>
        </mxCell>
        <mxCell id="i5FWKl6yyj3rR0sEyV6Q-29" value="&lt;font style=&quot;font-size: 14px;&quot;&gt;&lt;b&gt;&amp;nbsp;Attaches the resulting&amp;nbsp;&lt;br&gt;&amp;nbsp;output to the CR&lt;/b&gt;&lt;/font&gt;" style="edgeLabel;html=1;align=center;verticalAlign=middle;resizable=0;points=[];labelBorderColor=default;" vertex="1" connectable="0" parent="i5FWKl6yyj3rR0sEyV6Q-28">
          <mxGeometry x="-0.0404" y="1" relative="1" as="geometry">
            <mxPoint x="14" as="offset" />
          </mxGeometry>
        </mxCell>
        <mxCell id="i5FWKl6yyj3rR0sEyV6Q-22" style="edgeStyle=orthogonalEdgeStyle;rounded=0;orthogonalLoop=1;jettySize=auto;html=1;exitX=0.5;exitY=0.5;exitDx=0;exitDy=0;exitPerimeter=0;entryX=0;entryY=0.5;entryDx=0;entryDy=0;" edge="1" parent="i5FWKl6yyj3rR0sEyV6Q-19" source="i5FWKl6yyj3rR0sEyV6Q-20" target="i5FWKl6yyj3rR0sEyV6Q-21">
          <mxGeometry relative="1" as="geometry" />
        </mxCell>
        <mxCell id="i5FWKl6yyj3rR0sEyV6Q-23" value="&lt;font style=&quot;font-size: 14px;&quot;&gt;&lt;b&gt;Submits&lt;br style=&quot;&quot;&gt;IaaS Vault &lt;br&gt;&amp;nbsp;Secret Request&amp;nbsp;&lt;/b&gt;&lt;/font&gt;" style="edgeLabel;html=1;align=center;verticalAlign=middle;resizable=0;points=[];labelBorderColor=default;" vertex="1" connectable="0" parent="i5FWKl6yyj3rR0sEyV6Q-22">
          <mxGeometry x="-0.3697" y="-2" relative="1" as="geometry">
            <mxPoint x="43" y="-2" as="offset" />
          </mxGeometry>
        </mxCell>
        <mxCell id="i5FWKl6yyj3rR0sEyV6Q-31" style="edgeStyle=orthogonalEdgeStyle;rounded=0;orthogonalLoop=1;jettySize=auto;html=1;entryX=0.25;entryY=1;entryDx=0;entryDy=0;endArrow=classic;endFill=1;startArrow=none;startFill=0;" edge="1" parent="i5FWKl6yyj3rR0sEyV6Q-19" source="i5FWKl6yyj3rR0sEyV6Q-20" target="i5FWKl6yyj3rR0sEyV6Q-21">
          <mxGeometry relative="1" as="geometry">
            <Array as="points">
              <mxPoint x="135" y="500" />
              <mxPoint x="498" y="500" />
            </Array>
          </mxGeometry>
        </mxCell>
        <mxCell id="i5FWKl6yyj3rR0sEyV6Q-32" value="&lt;b style=&quot;font-size: 14px;&quot;&gt;&amp;nbsp;Reviews the attached&amp;nbsp;&lt;br&gt;&amp;nbsp;results for any issues,&lt;/b&gt;" style="edgeLabel;html=1;align=center;verticalAlign=middle;resizable=0;points=[];labelBorderColor=default;" vertex="1" connectable="0" parent="i5FWKl6yyj3rR0sEyV6Q-31">
          <mxGeometry x="-0.2485" y="-2" relative="1" as="geometry">
            <mxPoint x="56" as="offset" />
          </mxGeometry>
        </mxCell>
        <mxCell id="i5FWKl6yyj3rR0sEyV6Q-20" value="Staff" style="shape=umlActor;verticalLabelPosition=top;verticalAlign=bottom;html=1;outlineConnect=0;labelPosition=center;align=center;" vertex="1" parent="i5FWKl6yyj3rR0sEyV6Q-19">
          <mxGeometry x="120" y="270" width="30" height="60" as="geometry" />
        </mxCell>
        <mxCell id="i5FWKl6yyj3rR0sEyV6Q-21" value="&lt;font style=&quot;font-size: 16px;&quot;&gt;&lt;b&gt;&amp;nbsp;IaaS Vault&amp;nbsp;&lt;br&gt;&amp;nbsp;Secret Request&amp;nbsp;&lt;/b&gt;&lt;/font&gt;" style="verticalLabelPosition=middle;verticalAlign=middle;html=1;shape=process;whiteSpace=wrap;rounded=1;size=0.14;arcSize=6;labelPosition=center;align=center;" vertex="1" parent="i5FWKl6yyj3rR0sEyV6Q-19">
          <mxGeometry x="445" y="230" width="210" height="140" as="geometry" />
        </mxCell>
        <mxCell id="i5FWKl6yyj3rR0sEyV6Q-24" value="&lt;font style=&quot;font-size: 16px;&quot;&gt;The request includes the commands to&amp;nbsp; execute and the&amp;nbsp; expected output&lt;/font&gt;" style="rounded=0;whiteSpace=wrap;html=1;strokeColor=default;" vertex="1" parent="i5FWKl6yyj3rR0sEyV6Q-19">
          <mxGeometry x="465" y="560" width="170" height="130" as="geometry" />
        </mxCell>
        <mxCell id="i5FWKl6yyj3rR0sEyV6Q-25" value="&lt;b&gt;Staff&lt;/b&gt;" style="shape=umlActor;verticalLabelPosition=top;verticalAlign=bottom;html=1;outlineConnect=0;labelPosition=center;align=center;" vertex="1" parent="i5FWKl6yyj3rR0sEyV6Q-19">
          <mxGeometry x="890" y="270" width="30" height="60" as="geometry" />
        </mxCell>
        <mxCell id="i5FWKl6yyj3rR0sEyV6Q-26" style="edgeStyle=orthogonalEdgeStyle;rounded=0;orthogonalLoop=1;jettySize=auto;html=1;exitX=1;exitY=0.5;exitDx=0;exitDy=0;entryX=0.5;entryY=0.5;entryDx=0;entryDy=0;entryPerimeter=0;startArrow=classic;startFill=1;" edge="1" parent="i5FWKl6yyj3rR0sEyV6Q-19" source="i5FWKl6yyj3rR0sEyV6Q-21" target="i5FWKl6yyj3rR0sEyV6Q-25">
          <mxGeometry relative="1" as="geometry" />
        </mxCell>
        <mxCell id="i5FWKl6yyj3rR0sEyV6Q-27" value="&lt;font style=&quot;font-size: 14px;&quot;&gt;&lt;b&gt;Executes the &lt;br&gt;&amp;nbsp; Change Request&amp;nbsp;&amp;nbsp;&lt;/b&gt;&lt;/font&gt;" style="edgeLabel;html=1;align=center;verticalAlign=middle;resizable=0;points=[];labelBorderColor=default;" vertex="1" connectable="0" parent="i5FWKl6yyj3rR0sEyV6Q-26">
          <mxGeometry x="0.103" y="-1" relative="1" as="geometry">
            <mxPoint as="offset" />
          </mxGeometry>
        </mxCell>
        <mxCell id="i5FWKl6yyj3rR0sEyV6Q-33" value="&lt;font style=&quot;font-size: 16px;&quot;&gt;&lt;b&gt;Actual OLA&lt;/b&gt;: 8 hours&lt;br&gt;&lt;b&gt;OLA&lt;/b&gt;: 72 hours&lt;/font&gt;" style="rounded=1;whiteSpace=wrap;html=1;" vertex="1" parent="i5FWKl6yyj3rR0sEyV6Q-19">
          <mxGeometry x="465" y="750" width="170" height="60" as="geometry" />
        </mxCell>
      </root>
    </mxGraphModel>
  </diagram>
</mxfile>
